<svg height="480pt" viewBox="0 -16 480.00003 480" width="480pt" xmlns="http://www.w3.org/2000/svg"><path d="m472 128.007812c.03125-57.871093-41.265625-107.511718-98.175781-118.011718-56.910157-10.5-113.203125 21.136718-133.824219 75.210937-20.621094-54.074219-76.910156-85.710937-133.824219-75.210937-56.910156 10.5-98.207031 60.140625-98.175781 118.011718 0 136 165.726562 312 232 312s232-176 232-312zm0 0" fill="#fa507f"/><path d="m184 176.007812c-4.417969 0-8-3.582031-8-8 0-13.257812-10.746094-24-24-24s-24 10.742188-24 24c0 4.417969-3.582031 8-8 8s-8-3.582031-8-8c0-22.09375 17.910156-40 40-40s40 17.90625 40 40c0 4.417969-3.582031 8-8 8zm0 0" fill="#603913"/><g fill="#a21d1f"><path d="m240 288.007812c-26.910156 0-48-14.058593-48-32 0-4.421874 3.582031-8 8-8s8 3.578126 8 8c0 7.550782 13.6875 16 32 16s32-8.449218 32-16c0-4.421874 3.582031-8 8-8s8 3.578126 8 8c0 17.941407-21.089844 32-48 32zm0 0"/><path d="m176 304.007812c-3.445312 0-6.5-2.207031-7.589844-5.472656s.035156-6.863281 2.789063-8.929687c.199219-.144531 20.800781-15.839844 20.800781-33.597657 0-17.601562-20.574219-33.433593-20.800781-33.601562-3.535157-2.652344-4.25-7.664062-1.597657-11.199219 2.648438-3.535156 7.664063-4.25 11.199219-1.601562 1.109375.800781 27.199219 20.601562 27.199219 46.402343 0 25.796876-26.105469 45.597657-27.199219 46.398438-1.382812 1.042969-3.070312 1.605469-4.800781 1.601562zm0 0"/><path d="m304 304.007812c-1.730469.003907-3.417969-.558593-4.800781-1.601562-1.109375-.800781-27.199219-20.601562-27.199219-46.398438 0-25.800781 26.105469-45.601562 27.199219-46.402343 3.535156-2.648438 8.550781-1.933594 11.199219 1.601562 2.652343 3.535157 1.9375 8.546875-1.597657 11.199219-.214843.152344-20.800781 15.847656-20.800781 33.601562 0 17.597657 20.574219 33.429688 20.800781 33.597657 2.753907 2.066406 3.878907 5.664062 2.789063 8.929687s-4.144532 5.472656-7.589844 5.472656zm0 0"/></g><path d="m360 176.007812c-4.417969 0-8-3.582031-8-8 0-13.257812-10.746094-24-24-24s-24 10.742188-24 24c0 4.417969-3.582031 8-8 8s-8-3.582031-8-8c0-22.09375 17.910156-40 40-40s40 17.90625 40 40c0 4.417969-3.582031 8-8 8zm0 0" fill="#603913"/><path d="m352 .0078125c-46.570312.2187495-89.394531 25.5624995-112 66.2773435-28.140625-51.183594-87.378906-76.800781-143.945312-62.253906-56.570313 14.546875-96.0976568 65.566406-96.054688 123.976562 0 137.40625 164.671875 320 240 320s240-182.59375 240-320c-.082031-70.660156-57.34375-127.9179682-128-127.9999995zm-112 431.9999995c-60 0-224-172.347656-224-304-.03125-54.015624 38.511719-100.347656 91.628906-110.148437 53.117188-9.796875 105.65625 19.734375 124.898438 70.203125 1.183594 3.097656 4.15625 5.140625 7.472656 5.140625s6.289062-2.042969 7.472656-5.140625c19.242188-50.46875 71.78125-80 124.898438-70.203125 53.117187 9.800781 91.660156 56.132813 91.628906 110.148437 0 131.652344-164 304-224 304zm0 0"/><path d="m176 168.007812c0 4.417969 3.582031 8 8 8s8-3.582031 8-8c0-22.09375-17.910156-40-40-40s-40 17.90625-40 40c0 4.417969 3.582031 8 8 8s8-3.582031 8-8c0-13.257812 10.746094-24 24-24s24 10.742188 24 24zm0 0"/><path d="m308.800781 222.40625c3.535157-2.652344 4.25-7.664062 1.597657-11.199219-2.648438-3.535156-7.664063-4.25-11.199219-1.601562-1.109375.800781-27.199219 20.601562-27.199219 46.402343 0 7.550782-13.6875 16-32 16s-32-8.449218-32-16c0-25.816406-26.105469-45.601562-27.199219-46.402343-3.535156-2.648438-8.550781-1.933594-11.199219 1.601562-2.652343 3.535157-1.9375 8.546875 1.597657 11.199219.207031.152344 20.800781 16 20.800781 33.601562 0 17.742188-20.582031 33.4375-20.800781 33.597657-3.535157 2.652343-4.25 7.667969-1.597657 11.199219 2.648438 3.535156 7.664063 4.253906 11.199219 1.601562 9.03125-7.074219 16.503907-15.9375 21.953125-26.03125 10.753906 7.957031 23.875 12.054688 37.246094 11.632812 13.375.429688 26.503906-3.664062 37.265625-11.617187 5.441406 10.089844 12.910156 18.945313 21.933594 26.015625 3.535156 2.652344 8.550781 1.933594 11.199219-1.601562 2.652343-3.53125 1.9375-8.546876-1.597657-11.199219-.207031-.152344-20.800781-16-20.800781-33.597657 0-17.746093 20.585938-33.441406 20.800781-33.601562zm0 0"/><path d="m328 128.007812c-22.082031.023438-39.972656 17.917969-40 40 0 4.417969 3.582031 8 8 8s8-3.582031 8-8c0-13.257812 10.746094-24 24-24s24 10.742188 24 24c0 4.417969 3.582031 8 8 8s8-3.582031 8-8c-.027344-22.082031-17.917969-39.976562-40-40zm0 0"/></svg>